<?xml version="1.0" standalone="no"?><!DOCTYPE svg PUBLIC "-//W3C//DTD SVG 1.1//EN" "http://www.w3.org/Graphics/SVG/1.1/DTD/svg11.dtd"><svg t="1521132556016" class="icon" style="" viewBox="0 0 1024 1024" version="1.1" xmlns="http://www.w3.org/2000/svg" p-id="1158" xmlns:xlink="http://www.w3.org/1999/xlink" width="200" height="200"><defs><style type="text/css"></style></defs><path d="M721.12 540.16 540.128 721.28C527.616 733.76 507.36 733.76 494.88 721.28 482.368 708.8 482.368 688.32 494.88 675.84L626.752 544 288 544C270.304 544 256 529.6 256 512 256 494.4 270.304 480 288 480L626.752 480 494.88 348.16C482.368 335.68 482.368 315.52 494.88 302.72 507.36 290.24 527.616 290.24 540.128 302.72L721.12 483.84C728.8 491.52 731.2 502.08 729.44 512 731.2 521.92 728.8 532.48 721.12 540.16L721.12 540.16ZM512 0C229.216 0 0 229.12 0 512 0 794.88 229.216 1024 512 1024 794.784 1024 1024 794.88 1024 512 1024 229.12 794.784 0 512 0L512 0Z" p-id="1159" fill="#0A2F88"></path></svg>