<?xml version="1.0" standalone="no"?><!DOCTYPE svg PUBLIC "-//W3C//DTD SVG 1.1//EN" "http://www.w3.org/Graphics/SVG/1.1/DTD/svg11.dtd"><svg t="1521132520217" class="icon" style="" viewBox="0 0 1024 1024" version="1.1" xmlns="http://www.w3.org/2000/svg" p-id="1120" id="mx_n_1521132520227" xmlns:xlink="http://www.w3.org/1999/xlink" width="200" height="200"><defs><style type="text/css"></style></defs><path d="M736 544 397.248 544 529.152 675.84C541.632 688.32 541.632 708.8 529.152 721.28 516.64 733.76 496.384 733.76 483.872 721.28L302.848 540.16C295.2 532.48 292.8 521.92 294.56 512 292.8 502.08 295.2 491.52 302.848 483.84L483.872 302.72C496.384 290.24 516.64 290.24 529.152 302.72 541.632 315.52 541.632 335.68 529.152 348.16L397.248 480 736 480C753.664 480 768 494.4 768 512 768 529.6 753.664 544 736 544L736 544ZM512 0C229.248 0 0 229.12 0 512 0 794.88 229.248 1024 512 1024 794.752 1024 1024 794.88 1024 512 1024 229.12 794.752 0 512 0L512 0Z" p-id="1121" fill="#051D49"></path></svg>