<?xml version="1.0" standalone="no"?><!DOCTYPE svg PUBLIC "-//W3C//DTD SVG 1.1//EN" "http://www.w3.org/Graphics/SVG/1.1/DTD/svg11.dtd"><svg t="1526218391341" class="icon" style="" viewBox="0 0 1024 1024" version="1.1" xmlns="http://www.w3.org/2000/svg" p-id="2780" xmlns:xlink="http://www.w3.org/1999/xlink" width="200" height="200"><defs><style type="text/css"></style></defs><path d="M796.444444 113.777778h56.888889a113.777778 113.777778 0 0 1 113.777778 113.777778v682.666666a113.777778 113.777778 0 0 1-113.777778 113.777778H170.666667a113.777778 113.777778 0 0 1-113.777778-113.777778V227.555556a113.777778 113.777778 0 0 1 113.777778-113.777778h56.888889V0h113.777777v113.777778h341.333334V0h113.777777v113.777778zM170.666667 398.222222v512h682.666666V398.222222H170.666667z m455.111111 113.777778h113.777778v113.777778h-113.777778V512zM455.111111 512h113.777778v113.777778H455.111111V512z m170.666667 170.666667h113.777778v113.777777h-113.777778v-113.777777z m-170.666667 0h113.777778v113.777777H455.111111v-113.777777z m-170.666667 0h113.777778v113.777777H284.444444v-113.777777z" p-id="2781"></path></svg>