<?xml version="1.0" standalone="no"?><!DOCTYPE svg PUBLIC "-//W3C//DTD SVG 1.1//EN" "http://www.w3.org/Graphics/SVG/1.1/DTD/svg11.dtd"><svg t="1527349024154" class="icon" style="" viewBox="0 0 1024 1024" version="1.1" xmlns="http://www.w3.org/2000/svg" p-id="1121" xmlns:xlink="http://www.w3.org/1999/xlink" width="200" height="200"><defs><style type="text/css"></style></defs><path d="M1014.642023 822.647363c0 0 0 0 0 0l-310.64736-310.64736 310.64736-310.64736c0 0 0 0 0 0 3.359907-3.359907 5.75984-7.263798 7.327796-11.423682 4.255882-11.391683 1.823949-24.671314-7.327796-33.823059l-146.747919-146.747919c-9.151745-9.151745-22.463375-11.551679-33.823059-7.327796-4.159884 1.535957-8.063776 3.96789-11.423682 7.295797 0 0 0 0 0 0l-310.64736 310.64736-310.64736-310.64736c0 0 0 0 0 0-3.359907-3.327907-7.263798-5.75984-11.423682-7.295797-11.391683-4.255882-24.671314-1.823949-33.823059 7.327796l-146.747919 146.747919c-9.151745 9.151745-11.551679 22.463375-7.327796 33.823059 1.567956 4.159884 3.96789 8.063776 7.327796 11.423682 0 0 0 0 0 0l310.64736 310.64736-310.64736 310.64736c0 0 0 0 0 0-3.327907 3.359907-5.75984 7.263798-7.327796 11.423682-4.255882 11.359684-1.823949 24.671314 7.327796 33.823059l146.747919 146.747919c9.151745 9.151745 22.463375 11.551679 33.823059 7.327796 4.159884-1.567956 8.063776-3.96789 11.423682-7.327796 0 0 0 0 0 0l310.64736-310.64736 310.64736 310.64736c0 0 0 0 0 0 3.359907 3.359907 7.263798 5.75984 11.423682 7.327796 11.391683 4.255882 24.671314 1.823949 33.823059-7.327796l146.747919-146.747919c9.151745-9.151745 11.583678-22.463375 7.327796-33.823059-1.567956-4.159884-3.96789-8.063776-7.327796-11.423682z" p-id="1122" fill="#FFFFFF"></path></svg>