<?xml version="1.0" standalone="no"?><!DOCTYPE svg PUBLIC "-//W3C//DTD SVG 1.1//EN" "http://www.w3.org/Graphics/SVG/1.1/DTD/svg11.dtd"><svg t="1527793033319" class="icon" style="" viewBox="0 0 1024 1024" version="1.1" xmlns="http://www.w3.org/2000/svg" p-id="7111" xmlns:xlink="http://www.w3.org/1999/xlink" width="200" height="200"><defs><style type="text/css"></style></defs><path d="M928 128l-832 0c-52.8 0-96 43.2-96 96l0 640c0 52.8 43.2 96 96 96l832 0c52.8 0 96-43.2 96-96l0-640c0-52.8-43.2-96-96-96zM398.752 550.368l-270.752 210.88 0-501.632 270.752 290.752zM176.384 256l671.232 0-335.616 252-335.616-252zM409.28 561.696l102.72 110.304 102.72-110.304 210.56 270.304-626.528 0 210.56-270.304zM625.248 550.368l270.752-290.752 0 501.632-270.752-210.88z" p-id="7112" fill="#FFFFFF"></path></svg>