<?xml version="1.0" standalone="no"?><!DOCTYPE svg PUBLIC "-//W3C//DTD SVG 1.1//EN" "http://www.w3.org/Graphics/SVG/1.1/DTD/svg11.dtd"><svg t="1526219969138" class="icon" style="" viewBox="0 0 1024 1024" version="1.1" xmlns="http://www.w3.org/2000/svg" p-id="948" xmlns:xlink="http://www.w3.org/1999/xlink" width="200" height="200"><defs><style type="text/css"></style></defs><path d="M576 384 320 384C281.6 384 256 358.4 256 320l0 0c0-38.4 25.6-64 64-64l256 0c38.4 0 64 25.6 64 64l0 0C640 358.4 614.4 384 576 384z" p-id="949" fill="#FFFFFF"></path><path d="M704 768 448 768c-38.4 0-64-25.6-64-64l0 0c0-38.4 25.6-64 64-64l256 0c38.4 0 64 25.6 64 64l0 0C768 742.4 742.4 768 704 768z" p-id="950" fill="#FFFFFF"></path><path d="M768 576 512 576C473.6 576 448 550.4 448 512l0 0c0-38.4 25.6-64 64-64l256 0c38.4 0 64 25.6 64 64l0 0C832 550.4 806.4 576 768 576z" p-id="951" fill="#FFFFFF"></path><path d="M320 576 256 576C217.6 576 192 550.4 192 512l0 0c0-38.4 25.6-64 64-64l64 0c38.4 0 64 25.6 64 64l0 0C384 550.4 358.4 576 320 576z" p-id="952" fill="#FFFFFF"></path><path d="M512 128c211.2 0 384 172.8 384 384s-172.8 384-384 384-384-172.8-384-384S300.8 128 512 128M512 64C262.4 64 64 262.4 64 512s198.4 448 448 448 448-198.4 448-448S761.6 64 512 64L512 64z" p-id="953" fill="#FFFFFF"></path></svg>