<?xml version="1.0" standalone="no"?><!DOCTYPE svg PUBLIC "-//W3C//DTD SVG 1.1//EN" "http://www.w3.org/Graphics/SVG/1.1/DTD/svg11.dtd"><svg t="1527791449876" class="icon" style="" viewBox="0 0 1025 1024" version="1.1" xmlns="http://www.w3.org/2000/svg" p-id="7367" xmlns:xlink="http://www.w3.org/1999/xlink" width="200.1953125" height="200"><defs><style type="text/css"></style></defs><path d="M995.52 906.752c-6.432-4.256-123.136-80.8-296.736-118.368 63.68-80.672 104.576-189.184 121.952-261.408 24.128-100.096 14.752-295.936-81.376-417.984-56.192-71.328-134.816-108.992-227.36-108.992s-171.168 37.696-227.328 108.992c-96.128 122.016-105.472 317.856-81.376 417.952 17.376 72.224 58.24 180.736 121.952 261.408-173.6 37.568-290.304 114.112-296.704 118.368-23.456 15.616-33.952 44.8-25.76 71.744 8.128 27.04 33.056 45.536 61.216 45.536l896 0c28.192 0 53.056-18.496 61.248-45.504 8.224-26.944-2.272-56.128-25.728-71.744zM648.544 748.736l-10.432 13.248c-76.32 87.68-175.84 87.68-252.128 0l-10.464-13.248c-89.12-112.928-133.344-262.304-114.304-404.8 17.44-136.928 95.904-279.936 250.784-279.936s233.376 143.04 250.816 279.968c18.976 142.56-25.088 291.776-114.272 404.768zM64 960c4.416-2.944 112.832-74.048 274.752-109.056l79.488-17.184c28.384 18.624 59.52 30.24 93.76 30.24 34.272 0 65.376-11.616 93.76-30.24l79.488 17.184c160.64 34.752 268.672 105.056 274.752 109.056l-896 0z" p-id="7368"></path></svg>