<?xml version="1.0" standalone="no"?>
<!DOCTYPE svg PUBLIC "-//W3C//DTD SVG 20010904//EN"
 "http://www.w3.org/TR/2001/REC-SVG-20010904/DTD/svg10.dtd">
<svg version="1.0" xmlns="http://www.w3.org/2000/svg"
 width="420.000000pt" height="420.000000pt" viewBox="0 0 420.000000 420.000000"
 preserveAspectRatio="xMidYMid meet">
<metadata>
Created by potrace 1.11, written by Peter Selinger 2001-2013
</metadata>
<g transform="translate(0.000000,420.000000) scale(0.100000,-0.100000)"
fill="#000000" stroke="none">
<path d="M1902 4129 c-1049 -101 -1844 -1013 -1799 -2064 28 -648 346 -1217
882 -1580 110 -75 338 -189 456 -229 494 -166 1036 -137 1497 80 l112 53 467
-179 c257 -99 469 -178 471 -176 2 2 -58 216 -133 475 l-136 471 61 98 c455
721 399 1656 -138 2323 -71 87 -242 256 -327 320 -405 310 -914 456 -1413 408z
m450 -378 c363 -63 665 -223 917 -487 215 -225 355 -492 423 -804 19 -91 22
-134 22 -320 0 -185 -3 -229 -22 -316 -56 -257 -164 -487 -323 -691 -27 -35
-49 -70 -49 -78 0 -12 92 -342 115 -411 2 -6 -60 13 -138 43 -78 30 -174 67
-213 81 l-71 26 -69 -41 c-290 -171 -616 -256 -921 -239 -301 17 -565 103
-813 263 -618 401 -892 1172 -663 1872 34 107 141 321 207 416 255 369 655
620 1101 690 128 21 364 18 497 -4z"/>
<path d="M1770 2327 l0 -145 288 -4 c260 -4 293 -7 352 -26 158 -52 263 -190
277 -364 16 -187 -86 -366 -245 -430 -55 -22 -70 -23 -364 -26 l-308 -3 0 245
0 246 -166 0 -165 0 3 -332 c3 -328 3 -334 26 -370 13 -20 40 -47 60 -60 l37
-23 420 0 c477 1 495 3 665 86 120 60 241 180 299 299 59 123 75 193 75 335 0
137 -16 211 -70 320 -87 178 -254 310 -463 367 -68 19 -111 22 -398 26 l-323
4 0 -145z"/>
</g>
</svg>
