<?xml version="1.0" standalone="no"?>
<!DOCTYPE svg PUBLIC "-//W3C//DTD SVG 20010904//EN"
 "http://www.w3.org/TR/2001/REC-SVG-20010904/DTD/svg10.dtd">
<svg version="1.0" xmlns="http://www.w3.org/2000/svg"
 width="265.000000pt" height="265.000000pt" viewBox="0 0 265.000000 265.000000"
 preserveAspectRatio="xMidYMid meet">
<metadata>
Created by potrace 1.11, written by Peter Selinger 2001-2013
</metadata>
<g transform="translate(0.000000,265.000000) scale(0.100000,-0.100000)"
fill="#000000" stroke="none">
<path d="M1200 2643 c-70 -7 -232 -43 -307 -69 -398 -136 -718 -477 -833 -884
-11 -41 -23 -93 -26 -115 -3 -22 -10 -60 -14 -85 -9 -48 -5 -301 5 -360 3 -19
11 -53 17 -75 5 -22 12 -49 14 -59 17 -91 103 -280 175 -389 246 -367 668
-589 1107 -581 207 4 398 50 574 139 l87 44 63 -19 c35 -10 177 -53 316 -95
139 -43 255 -75 259 -72 3 3 -16 66 -42 139 -26 73 -73 208 -105 300 l-59 167
50 95 c27 52 63 134 80 183 28 85 33 101 44 161 3 15 8 38 10 52 3 14 8 36 10
50 8 39 8 270 1 320 -4 25 -9 59 -12 75 -21 134 -85 303 -167 443 -126 215
-338 408 -567 515 -92 43 -251 93 -345 107 -70 11 -269 19 -335 13z m225 -277
c159 -12 342 -79 489 -179 81 -54 204 -178 260 -260 81 -120 141 -263 171
-412 4 -16 8 -86 10 -155 6 -228 -45 -404 -173 -600 l-56 -84 37 -106 c44
-125 45 -133 15 -120 -13 5 -67 21 -121 35 -106 28 -101 28 -180 -25 -67 -45
-287 -141 -287 -125 0 3 -12 0 -26 -5 -63 -24 -326 -35 -419 -17 -226 43 -443
161 -577 312 -14 16 -38 44 -53 60 -84 97 -172 281 -205 432 -101 462 130 939
555 1147 130 64 230 92 365 102 41 4 77 8 79 10 2 1 15 1 30 -1 14 -3 53 -7
86 -9z"/>
<path d="M916 2048 c-9 -5 -12 -163 -11 -680 0 -630 1 -675 18 -699 32 -48 58
-52 329 -51 138 1 265 4 282 7 233 47 382 212 391 436 6 136 -39 255 -130 345
-51 50 -53 54 -45 88 11 50 5 184 -10 232 -46 143 -153 252 -293 298 -27 9
-65 19 -85 22 -52 9 -431 10 -446 2z m454 -198 c106 -38 184 -162 172 -276
l-3 -31 -207 3 c-114 1 -210 2 -214 3 -5 1 -8 73 -8 160 l0 160 113 -4 c61 -1
128 -8 147 -15z m10 -513 c-35 -16 -69 -21 -157 -23 l-113 -2 0 24 0 24 158
-1 157 -1 -45 -21z m300 -122 c32 -63 39 -163 16 -233 -23 -68 -74 -124 -138
-152 -49 -22 -68 -23 -248 -24 l-195 -1 -3 161 -2 161 113 0 c168 1 271 31
368 108 24 19 48 33 54 32 5 -2 21 -25 35 -52z"/>
</g>
</svg>
